<svg xmlns="http://www.w3.org/2000/svg" viewBox="0 0 200 76" width="200" height="76">
	<style>
		tspan { white-space:pre }
	</style>
	<path id="TRADER " fill="#c6007e" d="M48.7 43.5L48.7 46.93L41.77 46.93Q41.7 48.58 41.7 50.64Q41.7 52.67 41.7 55.54Q41.7 57.64 41.7 59.35Q41.7 61.03 41.7 62.51Q41.74 63.98 41.74 65.31Q41.77 66.64 41.81 68L36.87 68Q36.91 66.32 36.94 65.06Q37.01 63.77 37.05 62.4Q37.08 61 37.12 59.22Q37.15 57.43 37.15 54.73Q37.15 52.77 37.15 50.85Q37.15 48.92 37.08 46.93L30.15 46.93L30.15 43.5L48.7 43.5ZM51.64 43.85Q53.22 43.57 55.18 43.36Q57.17 43.11 59.03 43.11Q62 43.11 63.89 43.74Q65.82 44.38 66.9 45.39Q67.99 46.37 68.37 47.63Q68.79 48.85 68.79 50.08Q68.79 52.28 67.78 53.93Q66.8 55.54 64.98 56.48Q66.06 57.01 66.76 57.71Q67.5 58.38 67.92 59.35Q68.34 60.34 68.48 61.7Q68.65 63.03 68.65 64.81Q68.65 66.25 68.55 68L63.68 68.42Q63.79 67.27 63.86 66.22Q63.93 65.17 63.93 64.22Q63.93 62.68 63.68 61.52Q63.44 60.37 62.81 59.6Q62.18 58.8 61.09 58.41Q60.04 58.02 58.36 58.02Q57.98 58.02 57.45 58.06Q56.93 58.06 56.37 58.13Q56.37 61.03 56.37 63.38Q56.4 65.72 56.47 68L51.54 68Q51.61 66.32 51.64 65.06Q51.71 63.77 51.75 62.4Q51.78 61 51.78 59.28Q51.82 57.57 51.82 55.02Q51.82 52.08 51.78 49.38Q51.75 46.69 51.64 43.85ZM59.48 46.23Q58.78 46.23 58.01 46.37Q57.24 46.47 56.44 46.69Q56.37 48.16 56.37 50.01Q56.37 51.83 56.37 54.42L56.37 54.88Q57.35 55.09 58.64 55.09Q61.27 55.09 62.7 53.96Q64.17 52.81 64.17 50.6Q64.17 48.58 62.91 47.42Q61.69 46.23 59.48 46.23ZM75.69 68L70.89 68.42Q71.84 64.89 72.78 61.66Q73.76 58.41 74.81 55.36Q75.86 52.32 77.05 49.38Q78.28 46.44 79.68 43.5L84.05 43.08Q85.45 45.98 86.64 48.89Q87.83 51.8 88.88 54.88Q89.97 57.92 90.91 61.17Q91.89 64.43 92.84 68L88.08 68.42Q87.59 66.56 87.1 64.71Q86.61 62.82 86.12 60.93L77.47 60.93Q76.98 62.64 76.53 64.39Q76.07 66.14 75.69 68ZM81.88 47.45Q79.85 52.42 78.35 57.71L85.24 57.71Q84.47 55.09 83.63 52.49Q82.83 49.91 81.88 47.45ZM95.88 43.85Q97.28 43.57 99.31 43.33Q101.38 43.08 103.83 43.08Q106.59 43.08 108.73 43.95Q110.9 44.8 112.4 46.37Q113.91 47.94 114.68 50.19Q115.48 52.42 115.48 55.16Q115.48 58.02 114.57 60.48Q113.7 62.89 112.05 64.67Q110.44 66.42 108.17 67.44Q105.89 68.42 103.09 68.42Q100.68 68.42 98.79 68.31Q96.93 68.17 95.78 68Q95.81 66.32 95.85 65.06Q95.92 63.77 95.95 62.4Q95.99 61 96.02 59.22Q96.06 57.43 96.06 54.73Q96.06 52.04 96.02 49.38Q95.99 46.69 95.88 43.85ZM103.34 46.23Q102.74 46.23 102.04 46.37Q101.38 46.47 100.68 46.65Q100.61 48.33 100.61 50.43Q100.61 52.53 100.61 55.54Q100.61 58.66 100.61 60.93Q100.61 63.2 100.64 65.2Q101.38 65.55 102.25 65.55Q104.04 65.55 105.58 64.99Q107.15 64.43 108.31 63.2Q109.46 61.98 110.13 60.09Q110.79 58.16 110.79 55.44Q110.79 52.77 110.27 51.02Q109.78 49.24 108.8 48.19Q107.82 47.1 106.42 46.69Q105.05 46.23 103.34 46.23ZM133.19 53.96L133.19 57.19L124.09 57.19Q124.09 59.39 124.09 61.21Q124.09 62.99 124.13 64.57L134.94 64.57L134.94 68L119.26 68Q119.3 66.32 119.33 65.06Q119.4 63.77 119.44 62.4Q119.47 61 119.51 59.22Q119.54 57.43 119.54 54.73Q119.54 52.04 119.51 49.2Q119.47 46.33 119.37 43.5L134.28 43.5L134.28 46.93L124.16 46.93Q124.09 48.3 124.09 50.05Q124.09 51.76 124.09 53.96L133.19 53.96ZM138.65 43.85Q140.23 43.57 142.19 43.36Q144.18 43.11 146.04 43.11Q149.01 43.11 150.9 43.74Q152.83 44.38 153.91 45.39Q155 46.37 155.38 47.63Q155.8 48.85 155.8 50.08Q155.8 52.28 154.79 53.93Q153.81 55.54 151.99 56.48Q153.07 57.01 153.77 57.71Q154.51 58.38 154.93 59.35Q155.35 60.34 155.49 61.7Q155.66 63.03 155.66 64.81Q155.66 66.25 155.56 68L150.69 68.42Q150.8 67.27 150.87 66.22Q150.94 65.17 150.94 64.22Q150.94 62.68 150.69 61.52Q150.45 60.37 149.82 59.6Q149.19 58.8 148.1 58.41Q147.05 58.02 145.37 58.02Q144.99 58.02 144.46 58.06Q143.94 58.06 143.38 58.13Q143.38 61.03 143.38 63.38Q143.41 65.72 143.48 68L138.55 68Q138.62 66.32 138.65 65.06Q138.72 63.77 138.76 62.4Q138.79 61 138.79 59.28Q138.83 57.57 138.83 55.02Q138.83 52.08 138.79 49.38Q138.76 46.69 138.65 43.85ZM146.49 46.23Q145.79 46.23 145.02 46.37Q144.25 46.47 143.45 46.69Q143.38 48.16 143.38 50.01Q143.38 51.83 143.38 54.42L143.38 54.88Q144.36 55.09 145.65 55.09Q148.28 55.09 149.71 53.96Q151.18 52.81 151.18 50.6Q151.18 48.58 149.92 47.42Q148.7 46.23 146.49 46.23Z" />
	<path id="ESSENTIALS " fill="#c6007e" d="M19.59 18.96L19.59 22.18L10.49 22.18Q10.49 24.39 10.49 26.21Q10.49 27.99 10.52 29.57L21.34 29.57L21.34 33L5.66 33Q5.69 31.32 5.73 30.06Q5.8 28.77 5.83 27.4Q5.87 26 5.9 24.21Q5.94 22.43 5.94 19.73Q5.94 17.04 5.9 14.2Q5.87 11.33 5.76 8.5L20.67 8.5L20.67 11.93L10.56 11.93Q10.49 13.29 10.49 15.04Q10.49 16.76 10.49 18.96L19.59 18.96ZM31.94 29.43Q34.15 29.43 35.2 28.66Q36.28 27.89 36.28 26.42Q36.28 25.51 35.9 24.88Q35.51 24.25 34.85 23.8Q34.22 23.34 33.34 23.02Q32.5 22.67 31.59 22.36Q29.91 21.8 28.55 21.24Q27.22 20.68 26.24 19.95Q25.29 19.17 24.77 18.09Q24.24 16.97 24.24 15.32Q24.24 13.05 25.15 11.65Q26.1 10.21 27.5 9.44Q28.9 8.64 30.54 8.39Q32.22 8.11 33.66 8.11Q35.48 8.11 37.09 8.39Q38.73 8.67 39.96 8.95L39.96 13.01Q38.28 12.52 36.49 12.21Q34.71 11.89 33.24 11.89Q30.72 11.89 29.56 12.8Q28.41 13.68 28.41 14.94Q28.41 15.88 28.93 16.51Q29.49 17.14 30.26 17.6Q31.07 18.05 31.94 18.34Q32.85 18.58 33.59 18.79Q34.85 19.14 36.11 19.66Q37.37 20.16 38.38 20.99Q39.43 21.84 40.06 23.09Q40.69 24.32 40.69 26.14Q40.69 27.96 40.03 29.32Q39.4 30.69 38.21 31.6Q37.05 32.51 35.44 32.97Q33.83 33.42 31.91 33.42Q30.23 33.42 28.13 33.07Q26.06 32.72 24.07 31.98L23.93 27.68Q24.56 27.99 25.5 28.31Q26.45 28.59 27.53 28.87Q28.65 29.11 29.77 29.29Q30.93 29.43 31.94 29.43ZM51.51 29.43Q53.71 29.43 54.76 28.66Q55.85 27.89 55.85 26.42Q55.85 25.51 55.46 24.88Q55.08 24.25 54.41 23.8Q53.78 23.34 52.91 23.02Q52.07 22.67 51.16 22.36Q49.48 21.8 48.11 21.24Q46.78 20.68 45.8 19.95Q44.86 19.17 44.33 18.09Q43.81 16.97 43.81 15.32Q43.81 13.05 44.72 11.65Q45.66 10.21 47.06 9.44Q48.46 8.64 50.11 8.39Q51.79 8.11 53.22 8.11Q55.04 8.11 56.65 8.39Q58.3 8.67 59.52 8.95L59.52 13.01Q57.84 12.52 56.06 12.21Q54.27 11.89 52.8 11.89Q50.28 11.89 49.13 12.8Q47.97 13.68 47.97 14.94Q47.97 15.88 48.5 16.51Q49.06 17.14 49.83 17.6Q50.63 18.05 51.51 18.34Q52.42 18.58 53.15 18.79Q54.41 19.14 55.67 19.66Q56.93 20.16 57.95 20.99Q59 21.84 59.63 23.09Q60.26 24.32 60.26 26.14Q60.26 27.96 59.59 29.32Q58.96 30.69 57.77 31.6Q56.62 32.51 55.01 32.97Q53.4 33.42 51.47 33.42Q49.79 33.42 47.69 33.07Q45.63 32.72 43.63 31.98L43.49 27.68Q44.12 27.99 45.07 28.31Q46.01 28.59 47.1 28.87Q48.22 29.11 49.34 29.29Q50.49 29.43 51.51 29.43ZM78 18.96L78 22.18L68.9 22.18Q68.9 24.39 68.9 26.21Q68.9 27.99 68.94 29.57L79.75 29.57L79.75 33L64.07 33Q64.11 31.32 64.14 30.06Q64.21 28.77 64.25 27.4Q64.28 26 64.32 24.21Q64.35 22.43 64.35 19.73Q64.35 17.04 64.32 14.2Q64.28 11.33 64.18 8.5L79.09 8.5L79.09 11.93L68.97 11.93Q68.9 13.29 68.9 15.04Q68.9 16.76 68.9 18.96L78 18.96ZM98.65 8.85L103.48 8.5Q103.38 9.62 103.31 10.81Q103.27 11.96 103.24 13.4Q103.24 14.8 103.2 16.55Q103.2 18.3 103.2 20.54Q103.2 22.64 103.2 24.35Q103.2 26.04 103.2 27.5Q103.24 28.98 103.24 30.3Q103.27 31.63 103.31 33L96.27 33.42Q93.93 28.73 91.72 23.45Q89.55 18.13 87.87 12.7Q87.87 13.36 87.84 14.31Q87.84 15.22 87.84 16.27Q87.84 17.32 87.84 18.44Q87.84 19.52 87.84 20.54Q87.84 22.64 87.87 24.35Q87.91 26.04 87.94 27.5Q87.98 28.98 88.01 30.3Q88.08 31.63 88.12 33L83.36 33Q83.39 31.32 83.43 30.06Q83.5 28.77 83.53 27.4Q83.57 26 83.6 24.21Q83.64 22.43 83.64 19.73Q83.64 17.04 83.6 14.38Q83.57 11.68 83.46 8.85L91.2 8.08Q92.28 12.66 94.14 18.13Q96.03 23.59 98.86 29.88Q98.93 28.2 98.97 25.68Q99 23.16 99 19.73Q99 17.04 98.86 14.38Q98.76 11.68 98.65 8.85ZM124.83 8.5L124.83 11.93L117.9 11.93Q117.83 13.57 117.83 15.64Q117.83 17.67 117.83 20.54Q117.83 22.64 117.83 24.35Q117.83 26.04 117.83 27.5Q117.87 28.98 117.87 30.3Q117.9 31.63 117.94 33L113 33Q113.04 31.32 113.07 30.06Q113.14 28.77 113.18 27.4Q113.21 26 113.25 24.21Q113.28 22.43 113.28 19.73Q113.28 17.77 113.28 15.85Q113.28 13.92 113.21 11.93L106.28 11.93L106.28 8.5L124.83 8.5ZM127.77 8.85L132.78 8.5Q132.67 9.62 132.6 10.81Q132.57 11.96 132.53 13.4Q132.53 14.8 132.5 16.55Q132.5 18.3 132.5 20.54Q132.5 22.64 132.5 24.35Q132.5 26.04 132.5 27.5Q132.53 28.98 132.53 30.3Q132.57 31.63 132.6 33L127.67 33Q127.7 31.32 127.74 30.06Q127.81 28.77 127.84 27.4Q127.88 26 127.91 24.21Q127.95 22.43 127.95 19.73Q127.95 17.04 127.91 14.38Q127.88 11.68 127.77 8.85ZM140.44 33L135.65 33.42Q136.59 29.88 137.54 26.66Q138.52 23.41 139.57 20.36Q140.62 17.32 141.81 14.38Q143.03 11.44 144.43 8.5L148.81 8.08Q150.21 10.98 151.4 13.89Q152.59 16.79 153.64 19.88Q154.72 22.92 155.67 26.17Q156.65 29.43 157.59 33L152.83 33.42Q152.34 31.57 151.85 29.71Q151.36 27.82 150.87 25.93L142.23 25.93Q141.74 27.64 141.28 29.39Q140.83 31.14 140.44 33ZM146.64 12.45Q144.61 17.42 143.1 22.71L150 22.71Q149.23 20.09 148.39 17.49Q147.58 14.9 146.64 12.45ZM174.53 29.57L174.53 33L160.53 33Q160.57 31.32 160.6 30.06Q160.67 28.77 160.71 27.4Q160.74 26 160.78 24.21Q160.81 22.43 160.81 19.73Q160.81 17.04 160.78 14.38Q160.74 11.68 160.64 8.85L165.64 8.5Q165.54 9.62 165.47 10.81Q165.43 11.96 165.4 13.4Q165.4 14.8 165.36 16.55Q165.36 18.3 165.36 20.54Q165.36 23.41 165.36 25.54Q165.36 27.68 165.4 29.57L174.53 29.57ZM184.4 29.43Q186.61 29.43 187.66 28.66Q188.74 27.89 188.74 26.42Q188.74 25.51 188.36 24.88Q187.97 24.25 187.31 23.8Q186.68 23.34 185.8 23.02Q184.96 22.67 184.05 22.36Q182.37 21.8 181.01 21.24Q179.68 20.68 178.7 19.95Q177.75 19.17 177.23 18.09Q176.7 16.97 176.7 15.32Q176.7 13.05 177.61 11.65Q178.56 10.21 179.96 9.44Q181.36 8.64 183 8.39Q184.68 8.11 186.12 8.11Q187.94 8.11 189.55 8.39Q191.19 8.67 192.42 8.95L192.42 13.01Q190.74 12.52 188.95 12.21Q187.17 11.89 185.7 11.89Q183.18 11.89 182.02 12.8Q180.87 13.68 180.87 14.94Q180.87 15.88 181.39 16.51Q181.95 17.14 182.72 17.6Q183.53 18.05 184.4 18.34Q185.31 18.58 186.05 18.79Q187.31 19.14 188.57 19.66Q189.83 20.16 190.84 20.99Q191.89 21.84 192.52 23.09Q193.15 24.32 193.15 26.14Q193.15 27.96 192.49 29.32Q191.86 30.69 190.67 31.6Q189.51 32.51 187.9 32.97Q186.29 33.42 184.37 33.42Q182.69 33.42 180.59 33.07Q178.52 32.72 176.53 31.98L176.39 27.68Q177.02 27.99 177.96 28.31Q178.91 28.59 179.99 28.87Q181.11 29.11 182.23 29.29Q183.39 29.43 184.4 29.43Z" />
</svg>